# xmcd
#
# Track frame offsets:
#	150
#	22833
#	41785
#	55726
#	72376
#	87173
#	103153
#	119329
#	133111
#	144493
#	160946
#	172597
#	190979
#	224213
#	248297
#
# Disc length: 3348
#
# Revision: 3
# Processed by: cddbd v1.5.1PL0 Copyright (c) Steve Scherf et al.
# Submitted via: CDex 1.50Beta7
# Normalized: r2:DSETVAR1
#
DISCID=d10d120f
DTITLE=Various Artist - Divas do Jazz
DYEAR=2003
DGENRE=Jazz
TTITLE0=Carly Simon - As Time Goes By
TTITLE1=Patti Austin - Smoke Gets In Your Eyes
TTITLE2=Etta Jones - Stormy Weather
TTITLE3=Dusty Springfield - The Look Of Love
TTITLE4=Diane Krall - My Love
TTITLE5=Laura Fygi - How Insensitive
TTITLE6=Nina Simone - My Baby Just Cares For Me
TTITLE7=Ella Fitsgerald - Night And Day
TTITLE8=Natale Cole - L-O-V-E
TTITLE9=Aretha Franklin - Unforgattable
TTITLE10=Julie London - Fly Me To The Moon
TTITLE11=Sarah Vaughn - In A Sentimental Mood
TTITLE12=Thelma Houston - Moonlight Serenade
TTITLE13=Chicago All Stars - All That Jazz
TTITLE14=Various Artist - Data Track
EXTD=YEAR: 2003
EXTT0=
EXTT1=
EXTT2=
EXTT3=
EXTT4=
EXTT5=
EXTT6=
EXTT7=
EXTT8=
EXTT9=
EXTT10=
EXTT11=
EXTT12=
EXTT13=
EXTT14=
PLAYORDER=
